<svg width="142" height="113" viewBox="0 0 142 113" fill="none" xmlns="http://www.w3.org/2000/svg">
<path fill-rule="evenodd" clip-rule="evenodd" d="M63.371 0C69.0317 0 72.8336 4.53948 71.8162 10.0827L68.5957 27.5964H82.6098L85.203 13.4761C86.2204 7.93285 91.6899 3.39337 97.3507 3.39337C103.011 3.39337 106.813 7.93285 105.796 13.4761L103.203 27.5964H132.646C138.307 27.5964 142.491 32.1359 141.948 37.6791C141.405 43.2224 136.325 47.7619 130.665 47.7619H64.8933L62.9503 58.3315H42.3651L44.3082 47.7619H35.9548L28.1827 27.6039H48.0106L51.2311 10.0902C52.2485 4.54697 57.7179 0.00749088 63.3787 0.00749088L63.371 0Z" fill="url(#paint0_linear_28_1298)"/>
<path fill-rule="evenodd" clip-rule="evenodd" d="M78.6167 113C72.956 113 69.1541 108.46 70.1715 102.917L73.392 85.4036H59.3779L56.7847 99.5239C55.7673 105.067 50.2978 109.607 44.6371 109.607C38.9764 109.607 35.1745 105.067 36.1919 99.5239L38.7851 85.4036H9.34938C3.68865 85.4036 -0.49569 80.8641 0.0474335 75.3208H0.0397839C0.582907 69.7776 5.66226 65.2381 11.323 65.2381H77.0945L79.0375 54.6685H99.6226L97.6796 65.2381H114.448L102.331 85.3961H93.9772L90.7643 102.91C89.7469 108.453 84.2775 112.992 78.6167 112.992V113Z" fill="url(#paint1_linear_28_1298)"/>
<defs>
<linearGradient id="paint0_linear_28_1298" x1="28.1751" y1="29.162" x2="141.994" y2="29.162" gradientUnits="userSpaceOnUse">
<stop stop-color="#666666"/>
<stop offset="1" stop-color="#353535"/>
</linearGradient>
<linearGradient id="paint1_linear_28_1298" x1="-3.76208" y1="83.838" x2="118.754" y2="83.838" gradientUnits="userSpaceOnUse">
<stop stop-color="#6556FF"/>
<stop offset="1" stop-color="#461CF4"/>
</linearGradient>
</defs>
</svg>
