<svg width="50" height="50" viewBox="0 0 50 50" fill="none" xmlns="http://www.w3.org/2000/svg">
<rect x="0.5" y="0.5" width="49" height="49" rx="4.5" fill="white"/>
<path fill-rule="evenodd" clip-rule="evenodd" d="M23.308 11C24.5638 11 25.4072 12.1248 25.1815 13.4984L24.4671 17.8381H27.5759L28.1512 14.3392C28.3769 12.9657 29.5903 11.8408 30.846 11.8408C32.1018 11.8408 32.9452 12.9657 32.7195 14.3392L32.1442 17.8381H38.6759C39.9316 17.8381 40.8599 18.963 40.7394 20.3365C40.6189 21.7101 39.4921 22.8349 38.2364 22.8349H23.6457L23.2147 25.454H18.6481L19.0792 22.8349H17.2261L15.502 17.84H19.9005L20.6149 13.5003C20.8406 12.1267 22.054 11.0019 23.3097 11.0019L23.308 11Z" fill="url(#paint0_linear_175_2400)"/>
<path fill-rule="evenodd" clip-rule="evenodd" d="M26.6902 38.9999C25.4344 38.9999 24.591 37.875 24.8167 36.5015L25.5311 32.1618H22.4223L21.847 35.6606C21.6213 37.0342 20.408 38.159 19.1522 38.159C17.8964 38.159 17.053 37.0342 17.2787 35.6606L17.854 32.1618H11.324C10.0683 32.1618 9.14004 31.0369 9.26052 29.6634H9.25883C9.37931 28.2898 10.5061 27.165 11.7619 27.165H26.3525L26.7835 24.5459H31.3501L30.919 27.165H34.6388L31.9508 32.1599H30.0977L29.385 36.4996C29.1593 37.8732 27.9459 38.998 26.6902 38.998V38.9999Z" fill="url(#paint1_linear_175_2400)"/>
<rect x="0.5" y="0.5" width="49" height="49" rx="4.5" stroke="#EDEDED"/>
<defs>
<linearGradient id="paint0_linear_175_2400" x1="15.5003" y1="18.2261" x2="40.7496" y2="18.2261" gradientUnits="userSpaceOnUse">
<stop stop-color="#666666"/>
<stop offset="1" stop-color="#353535"/>
</linearGradient>
<linearGradient id="paint1_linear_175_2400" x1="8.41543" y1="31.7738" x2="35.5942" y2="31.7738" gradientUnits="userSpaceOnUse">
<stop stop-color="#6556FF"/>
<stop offset="1" stop-color="#461CF4"/>
</linearGradient>
</defs>
</svg>
