<svg width="20" height="19" viewBox="0 0 20 19" fill="none" xmlns="http://www.w3.org/2000/svg">
<path d="M19.447 3.60474L13.447 0.604739C13.3081 0.535219 13.1549 0.499023 12.9995 0.499023C12.8441 0.499023 12.6909 0.535219 12.552 0.604739L7 3.38174L1.447 0.604739C1.2945 0.528537 1.12506 0.492584 0.954757 0.500297C0.784455 0.50801 0.618953 0.559132 0.473969 0.648808C0.328985 0.738483 0.209334 0.863735 0.126379 1.01267C0.0434244 1.1616 -7.93497e-05 1.32926 1.08651e-07 1.49974V14.4997C1.08651e-07 14.8787 0.214 15.2247 0.553 15.3947L6.553 18.3947C6.69193 18.4643 6.84515 18.5005 7.0005 18.5005C7.15585 18.5005 7.30907 18.4643 7.448 18.3947L13 15.6177L18.553 18.3937C18.7051 18.4707 18.8744 18.5071 19.0446 18.4996C19.2149 18.4921 19.3803 18.4408 19.525 18.3507C19.82 18.1677 20 17.8467 20 17.4997V4.49974C20 4.12074 19.786 3.77474 19.447 3.60474ZM8 5.11774L12 3.11774V13.8817L8 15.8817V5.11774ZM2 3.11774L6 5.11774V15.8817L2 13.8817V3.11774ZM18 15.8817L14 13.8817V3.11774L18 5.11774V15.8817Z" fill="#959292"/>
</svg>