<svg width="20" height="21" viewBox="0 0 20 21" fill="none" xmlns="http://www.w3.org/2000/svg">
<path d="M11.9805 13.1992L6.34375 15.3672C5.55078 15.6602 4.83984 14.9141 5.13281 14.1562L7.30078 8.51953C7.42578 8.1875 7.6875 7.92578 8.01953 7.80078L13.6562 5.63281C14.4141 5.33984 15.1602 6.05078 14.8672 6.84375L12.6992 12.4805C12.5742 12.8125 12.3125 13.0742 11.9805 13.1992ZM9.96484 9.25C9.30859 9.25 8.71484 9.80859 8.71484 10.5C8.71484 11.1914 9.30859 11.75 9.96484 11.75C10.6914 11.75 11.25 11.1914 11.25 10.5C11.25 9.80859 10.6914 9.25 9.96484 9.25ZM20 10.5C20 16.0234 15.5234 20.5 10 20.5C4.47656 20.5 0 16.0234 0 10.5C0 4.97656 4.47656 0.5 10 0.5C15.5234 0.5 20 4.97656 20 10.5ZM10 2.375C5.51172 2.375 1.875 6.01172 1.875 10.5C1.875 14.9883 5.51172 18.625 10 18.625C14.4883 18.625 18.125 14.9883 18.125 10.5C18.125 6.01172 14.4883 2.375 10 2.375Z" fill="#959292"/>
</svg>
