<svg width="13" height="14" viewBox="0 0 13 14" fill="none" xmlns="http://www.w3.org/2000/svg">
<g clip-path="url(#clip0_194_5432)">
<path d="M9.08817 4.41627C8.92795 4.25605 8.66913 4.25605 8.50891 4.41627L6.5 6.42107L4.49109 4.41216C4.33087 4.25194 4.07205 4.25194 3.91183 4.41216C3.75161 4.57238 3.75161 4.83119 3.91183 4.99141L5.92074 7.00033L3.91183 9.00924C3.75161 9.16946 3.75161 9.42827 3.91183 9.58849C4.07205 9.74871 4.33087 9.74871 4.49109 9.58849L6.5 7.57958L8.50891 9.58849C8.66913 9.74871 8.92795 9.74871 9.08817 9.58849C9.24839 9.42827 9.24839 9.16946 9.08817 9.00924L7.07925 7.00033L9.08817 4.99141C9.24428 4.8353 9.24428 4.57238 9.08817 4.41627V4.41627Z" fill="#959292"/>
</g>
<rect x="0.5" y="1" width="12" height="12" rx="6" stroke="#959292"/>
<defs>
<clipPath id="clip0_194_5432">
<rect y="0.5" width="13" height="13" rx="6.5" fill="white"/>
</clipPath>
</defs>
</svg>
