<svg width="101" height="17" viewBox="0 0 101 17" fill="none" xmlns="http://www.w3.org/2000/svg">
<path d="M4.0945 10.888L10.2225 3.48V1.8H0.7985V3.912H6.8145L0.6705 11.32V13H10.4625V10.888H4.0945ZM14.3329 5.528V4.392H11.9489V13H14.4449V8.936C14.4449 7.288 15.3569 6.536 16.7329 6.536C16.9249 6.536 17.0849 6.552 17.2929 6.568V4.264C15.9649 4.264 14.9409 4.696 14.3329 5.528ZM27.1309 8.728C27.1309 5.96 25.1789 4.264 22.6509 4.264C20.0269 4.264 18.0589 6.12 18.0589 8.696C18.0589 11.256 19.9949 13.128 22.9709 13.128C24.5229 13.128 25.7229 12.648 26.5229 11.736L25.1949 10.296C24.6029 10.856 23.9469 11.128 23.0349 11.128C21.7229 11.128 20.8109 10.472 20.5709 9.4H27.0829C27.0989 9.192 27.1309 8.92 27.1309 8.728ZM22.6669 6.152C23.7869 6.152 24.6029 6.856 24.7789 7.944H20.5389C20.7149 6.84 21.5309 6.152 22.6669 6.152ZM34.7804 4.392L32.3164 10.248L29.9324 4.392H27.3564L30.9724 13H33.5484L37.1804 4.392H34.7804ZM39.4469 3.192C40.3749 3.192 40.9989 2.584 40.9989 1.752C40.9989 0.983999 40.3749 0.407999 39.4469 0.407999C38.5189 0.407999 37.8949 1.016 37.8949 1.8C37.8949 2.584 38.5189 3.192 39.4469 3.192ZM38.1989 13H40.6949V4.392H38.1989V13ZM51.4434 8.728C51.4434 5.96 49.4914 4.264 46.9634 4.264C44.3394 4.264 42.3714 6.12 42.3714 8.696C42.3714 11.256 44.3074 13.128 47.2834 13.128C48.8354 13.128 50.0354 12.648 50.8354 11.736L49.5074 10.296C48.9154 10.856 48.2594 11.128 47.3474 11.128C46.0354 11.128 45.1234 10.472 44.8834 9.4H51.3954C51.4114 9.192 51.4434 8.92 51.4434 8.728ZM46.9794 6.152C48.0994 6.152 48.9154 6.856 49.0914 7.944H44.8514C45.0274 6.84 45.8434 6.152 46.9794 6.152ZM64.5649 4.392L62.4689 10.216L60.4209 4.392H58.3089L56.1969 10.216L54.1649 4.392H51.8129L54.9169 13H57.3169L59.3169 7.656L61.2529 13H63.6529L66.7729 4.392H64.5649ZM74.9605 13H77.5525V3.912H81.1365V1.8H71.3765V3.912H74.9605V13ZM85.3896 4.264C84.0136 4.264 82.6216 4.632 81.6776 5.304L82.5736 7.048C83.1976 6.552 84.1416 6.248 85.0536 6.248C86.3976 6.248 87.0376 6.872 87.0376 7.944H85.0536C82.4296 7.944 81.3576 9 81.3576 10.52C81.3576 12.008 82.5576 13.128 84.5736 13.128C85.8376 13.128 86.7336 12.712 87.1976 11.928V13H89.5336V8.088C89.5336 5.48 88.0136 4.264 85.3896 4.264ZM85.1976 11.448C84.3176 11.448 83.7896 11.032 83.7896 10.408C83.7896 9.832 84.1576 9.4 85.3256 9.4H87.0376V10.28C86.7496 11.064 86.0296 11.448 85.1976 11.448ZM98.3984 4.392V5.496C97.7424 4.664 96.7504 4.264 95.5504 4.264C93.1664 4.264 91.2464 5.912 91.2464 8.424C91.2464 10.936 93.1664 12.584 95.5504 12.584C96.6704 12.584 97.6144 12.232 98.2704 11.512V11.88C98.2704 13.432 97.5024 14.232 95.7424 14.232C94.6384 14.232 93.4384 13.848 92.7024 13.256L91.7104 15.048C92.7184 15.832 94.3024 16.232 95.9344 16.232C99.0384 16.232 100.766 14.76 100.766 11.56V4.392H98.3984ZM96.0464 10.536C94.7344 10.536 93.7744 9.688 93.7744 8.424C93.7744 7.16 94.7344 6.312 96.0464 6.312C97.3584 6.312 98.3024 7.16 98.3024 8.424C98.3024 9.688 97.3584 10.536 96.0464 10.536Z" fill="#3A3A3A"/>
</svg>
