<svg width="67" height="14" viewBox="0 0 67 14" fill="none" xmlns="http://www.w3.org/2000/svg">
<path d="M4.17263 10.888L10.3006 3.48V1.8H0.876625V3.912H6.89263L0.748625 11.32V13H10.5406V10.888H4.17263ZM14.411 5.528V4.392H12.027V13H14.523V8.936C14.523 7.288 15.435 6.536 16.811 6.536C17.003 6.536 17.163 6.552 17.371 6.568V4.264C16.043 4.264 15.019 4.696 14.411 5.528ZM27.209 8.728C27.209 5.96 25.257 4.264 22.729 4.264C20.105 4.264 18.137 6.12 18.137 8.696C18.137 11.256 20.073 13.128 23.049 13.128C24.601 13.128 25.801 12.648 26.601 11.736L25.273 10.296C24.681 10.856 24.025 11.128 23.113 11.128C21.801 11.128 20.889 10.472 20.649 9.4H27.161C27.177 9.192 27.209 8.92 27.209 8.728ZM22.745 6.152C23.865 6.152 24.681 6.856 24.857 7.944H20.617C20.793 6.84 21.609 6.152 22.745 6.152ZM34.8585 4.392L32.3945 10.248L30.0105 4.392H27.4345L31.0505 13H33.6265L37.2585 4.392H34.8585ZM39.525 3.192C40.453 3.192 41.077 2.584 41.077 1.752C41.077 0.983999 40.453 0.407999 39.525 0.407999C38.597 0.407999 37.973 1.016 37.973 1.8C37.973 2.584 38.597 3.192 39.525 3.192ZM38.277 13H40.773V4.392H38.277V13ZM51.5215 8.728C51.5215 5.96 49.5695 4.264 47.0415 4.264C44.4175 4.264 42.4495 6.12 42.4495 8.696C42.4495 11.256 44.3855 13.128 47.3615 13.128C48.9135 13.128 50.1135 12.648 50.9135 11.736L49.5855 10.296C48.9935 10.856 48.3375 11.128 47.4255 11.128C46.1135 11.128 45.2015 10.472 44.9615 9.4H51.4735C51.4895 9.192 51.5215 8.92 51.5215 8.728ZM47.0575 6.152C48.1775 6.152 48.9935 6.856 49.1695 7.944H44.9295C45.1055 6.84 45.9215 6.152 47.0575 6.152ZM64.643 4.392L62.547 10.216L60.499 4.392H58.387L56.275 10.216L54.243 4.392H51.891L54.995 13H57.395L59.395 7.656L61.331 13H63.731L66.851 4.392H64.643Z" fill="#3A3A3A"/>
</svg>
